<?xml version="1.0" encoding="utf-8"?>
<svg id="svg2" viewBox="0 0 500 670" xmlns="http://www.w3.org/2000/svg" xmlns:bx="https://boxy-svg.com">
  <desc>Source: openclipart.org/detail/209545</desc>
  <defs>
    <linearGradient gradientUnits="userSpaceOnUse" x1="249.521" y1="220.291" x2="249.521" y2="448.124" id="gradient-1" gradientTransform="matrix(1, 0, 0, 1, 377.832157, -13.734101)">
      <stop offset="0" style="stop-color: rgb(98.431% 100% 0%)"/>
      <stop offset="1" style="stop-color: rgb(255, 217, 0);"/>
    </linearGradient>
    <clipPath id="clip-0">
      <rect width="141.686" height="379.259" style="fill: rgb(216, 216, 216); stroke: rgb(0, 0, 0); stroke-width: 1px;" x="119.8"/>
    </clipPath>
    <linearGradient gradientUnits="userSpaceOnUse" x1="249.521" y1="220.291" x2="249.521" y2="448.124" id="gradient-2" gradientTransform="matrix(1, 0, 0, 1, -376.828991, 7.574383)">
      <stop offset="0" style="stop-color: rgb(98.431% 100% 0%)"/>
      <stop offset="1" style="stop-color: rgb(255, 217, 0);"/>
    </linearGradient>
    <clipPath id="clip-1">
      <rect x="-127.29" width="141.686" height="379.259" style="fill: rgb(216, 216, 216); stroke: rgb(0, 0, 0); stroke-width: 0.87;" y="227.865"/>
    </clipPath>
    <linearGradient gradientUnits="userSpaceOnUse" x1="249.521" y1="220.291" x2="249.521" y2="448.124" id="gradient-3" gradientTransform="matrix(1, 0, 0, 1, -369.305725, -220.291183)">
      <stop offset="0" style="stop-color: rgb(98.431% 100% 0%)"/>
      <stop offset="1" style="stop-color: rgb(255, 217, 0);"/>
    </linearGradient>
    <clipPath id="clip-2">
      <rect x="-119.76" width="141.686" height="379.259" style="fill: rgb(216, 216, 216); stroke: rgb(0, 0, 0); stroke-width: 0.87;"/>
    </clipPath>
    <clipPath id="clip-3">
      <rect x="-242.9" width="141.686" height="379.259" style="fill: rgb(216, 216, 216); stroke: rgb(0, 0, 0); stroke-width: 0.87;" y="282.887"/>
    </clipPath>
  </defs>
  <path d="M 627.353 206.557 L 656.964 291.744 L 747.133 293.581 L 675.265 348.067 L 701.381 434.39 L 627.353 382.877 L 553.325 434.39 L 579.441 348.067 L 507.573 293.581 L 597.742 291.744 Z" bx:shape="star 627.353 332.5 125.944 125.943 0.4 5 1@5570f045" style="stroke: rgb(0, 0, 0); stroke-width: 0.87; fill: url(&quot;#gradient-1&quot;);"/>
  <path d="M -127.31 227.865 L -97.699 313.052 L -7.53 314.889 L -79.398 369.375 L -53.282 455.698 L -127.31 404.185 L -201.338 455.698 L -175.222 369.375 L -247.09 314.889 L -156.921 313.052 Z" bx:shape="star -127.31 353.808 125.944 125.943 0.4 5 1@f964fb83" style="stroke: rgb(0, 0, 0); stroke-width: 0.87; fill: url(&quot;#gradient-2&quot;); clip-path: url(&quot;#clip-1&quot;);"/>
  <g transform="matrix(1, 0, 0, 1, 148.841995, 181.758255)">
    <path d="M 119.78 0 L 149.391 85.187 L 239.56 87.024 L 167.692 141.51 L 193.808 227.833 L 119.78 176.32 L 45.752 227.833 L 71.868 141.51 L 0 87.024 L 90.169 85.187 Z" bx:shape="star 119.78 125.943 125.944 125.943 0.4 5 1@8f07bcef" style="stroke: rgb(0, 0, 0); stroke-width: 1px; clip-path: url(&quot;#clip-0&quot;); fill: rgb(227, 227, 227);"/>
    <path d="M -119.78 0 L -90.169 85.187 L 0 87.024 L -71.868 141.51 L -45.752 227.833 L -119.78 176.32 L -193.808 227.833 L -167.692 141.51 L -239.56 87.024 L -149.391 85.187 Z" bx:shape="star -119.78 125.943 125.944 125.943 0.4 5 1@a1234647" style="stroke: rgb(0, 0, 0); stroke-width: 0.87; fill: url(&quot;#gradient-3&quot;); clip-path: url(&quot;#clip-2&quot;);" transform="matrix(-1, 0, 0, 1, 0, 0)"/>
  </g>
  <path d="M -242.92 282.887 L -213.309 368.074 L -123.14 369.911 L -195.008 424.397 L -168.892 510.72 L -242.92 459.207 L -316.948 510.72 L -290.832 424.397 L -362.7 369.911 L -272.531 368.074 Z" bx:shape="star -242.92 408.83 125.944 125.943 0.4 5 1@09d9a3a0" style="stroke: rgb(0, 0, 0); stroke-width: 0.87; fill: rgb(229, 229, 229); clip-path: url(&quot;#clip-3&quot;);"/>
  <path d="M -183.33 607.442 L -153.719 692.629 L -63.55 694.466 L -135.418 748.952 L -109.302 835.275 L -183.33 783.762 L -257.358 835.275 L -231.242 748.952 L -303.11 694.466 L -212.941 692.629 Z" bx:shape="star -183.33 733.385 125.944 125.943 0.4 5 1@e9061b33" style="stroke: rgb(0, 0, 0); stroke-width: 0.757; fill: rgb(227, 227, 227);"/>
</svg>